<?xml version="1.0" standalone="no"?>
<!DOCTYPE svg PUBLIC "-//W3C//DTD SVG 20010904//EN"
 "http://www.w3.org/TR/2001/REC-SVG-20010904/DTD/svg10.dtd">
<svg version="1.0" xmlns="http://www.w3.org/2000/svg"
 width="256.000000pt" height="256.000000pt" viewBox="0 0 256.000000 256.000000"
 preserveAspectRatio="xMidYMid meet">
<metadata>
Created by potrace 1.14, written by Peter Selinger 2001-2017
</metadata>
<g transform="translate(0.000000,256.000000) scale(0.100000,-0.100000)"
fill="#000000" stroke="none">
<path d="M0 2286 c0 -151 3 -281 6 -290 13 -35 33 -12 58 68 26 81 28 84 69
100 50 19 106 21 156 5 73 -23 178 -81 251 -139 86 -68 205 -130 249 -130 17
0 46 -8 66 -17 31 -15 39 -15 58 -4 13 9 44 13 79 12 47 -2 68 4 127 33 38 20
72 40 76 46 12 19 156 110 175 110 24 0 43 29 118 177 78 154 125 230 171 270
l36 33 -847 0 -848 0 0 -274z"/>
<path d="M1836 2528 c20 -91 20 -79 11 -409 -4 -184 -3 -198 17 -240 11 -24
32 -49 46 -55 114 -51 144 -72 193 -134 29 -36 57 -76 63 -90 7 -14 26 -40 43
-58 22 -24 31 -43 31 -68 0 -60 49 -31 57 34 6 55 35 120 55 125 15 4 17 14
14 54 -3 29 1 58 9 73 11 19 14 21 15 8 0 -32 20 -19 20 13 0 26 3 30 24 27
27 -3 76 30 76 52 0 9 6 24 13 35 10 15 12 43 6 115 -7 96 3 149 22 119 6 -10
9 -7 9 12 0 15 -7 29 -15 33 -8 3 -15 10 -15 17 0 6 7 9 15 5 20 -7 19 20 -1
32 -15 8 -15 10 0 15 14 6 16 28 16 162 l0 155 -366 0 -366 0 8 -32z m595
-649 c-5 -13 -10 -19 -10 -12 -1 15 10 45 15 40 3 -2 0 -15 -5 -28z"/>
<path d="M1718 2466 c-6 -14 -8 -32 -4 -42 6 -15 8 -15 24 -2 9 8 25 18 35 21
9 4 17 16 17 27 0 31 -57 28 -72 -4z"/>
<path d="M1760 2417 c0 -9 -11 -22 -24 -28 -35 -16 -50 -54 -34 -90 18 -40 38
-33 65 21 27 53 28 69 8 96 -13 17 -14 17 -15 1z"/>
<path d="M2434 1722 c11 -12 19 -13 27 -5 7 7 3 12 -16 15 -25 5 -25 4 -11
-10z"/>
<path d="M2541 1646 c-11 -13 -11 -20 -3 -28 15 -15 24 -5 20 23 -3 21 -4 21
-17 5z"/>
<path d="M1865 1592 c-47 -25 -50 -30 -53 -69 -2 -24 -1 -43 3 -43 3 0 30 16
60 36 58 39 76 68 54 90 -12 11 -22 9 -64 -14z"/>
<path d="M2475 1556 c-19 -14 -19 -15 -1 -48 11 -20 17 -46 14 -61 -6 -32 11
-40 46 -24 33 15 37 70 7 87 -11 5 -21 20 -23 32 -4 27 -19 32 -43 14z"/>
<path d="M2390 1478 c0 -4 -7 -8 -15 -8 -26 0 -16 -25 15 -37 29 -11 30 -11
30 21 0 22 -5 33 -15 33 -8 0 -15 -4 -15 -9z"/>
<path d="M2256 1403 c-3 -3 -6 -17 -6 -30 0 -12 -4 -23 -10 -23 -5 0 -10 -11
-10 -24 0 -14 -5 -28 -10 -31 -6 -4 -8 -15 -5 -26 4 -11 -2 -27 -14 -41 -12
-12 -21 -27 -21 -34 0 -15 -77 -115 -99 -129 -38 -24 -121 -48 -173 -51 -57
-2 -58 -2 -58 25 0 16 7 42 16 59 8 18 14 42 12 54 -3 21 -5 20 -23 -13 -61
-108 -100 -167 -107 -163 -4 3 -8 1 -8 -4 0 -4 -17 -16 -37 -26 -21 -10 -54
-28 -73 -41 -21 -14 -59 -26 -95 -30 -33 -4 -78 -17 -100 -29 -33 -17 -58 -21
-140 -22 -105 -1 -140 -7 -191 -30 -44 -19 -60 -88 -28 -115 14 -11 18 -11 29
4 7 9 20 17 30 17 10 0 23 7 29 15 8 11 36 17 93 21 86 6 107 0 153 -41 39
-35 74 -39 107 -12 15 13 41 27 57 31 21 5 26 10 18 18 -8 8 -7 19 4 39 15 31
31 33 51 9 10 -13 14 -12 28 8 9 12 23 22 31 22 8 0 14 5 14 10 0 6 13 10 29
10 17 0 33 5 36 10 3 6 22 10 41 10 33 0 34 -1 34 -41 0 -30 -6 -46 -22 -59
-13 -10 -19 -22 -15 -26 4 -5 12 -3 16 4 4 7 15 10 23 7 8 -3 22 1 31 9 9 9
26 14 39 12 17 -3 22 -9 20 -27 -1 -13 -8 -27 -15 -31 -6 -4 -7 -8 -2 -8 6 0
4 -4 -4 -9 -8 -5 -15 -27 -17 -49 -1 -21 -6 -47 -12 -58 -9 -16 -15 -17 -46
-7 -28 9 -36 8 -36 -1 0 -14 -63 -75 -102 -99 -33 -21 -58 -22 -58 -3 0 20
-42 28 -60 11 -9 -8 -31 -15 -48 -15 -17 0 -42 -4 -56 -10 -14 -5 -41 -10 -61
-12 -19 -1 -35 -7 -35 -13 0 -5 -5 -3 -11 5 -9 12 -10 12 -5 -4 4 -11 1 -23
-6 -29 -9 -6 -8 -7 5 -3 11 3 17 0 17 -9 0 -9 10 -15 24 -15 32 0 43 -18 14
-22 -18 -2 -22 -9 -20 -28 2 -20 1 -22 -7 -10 -6 8 -11 10 -11 4 0 -6 7 -17
15 -24 8 -7 15 -19 15 -26 0 -17 27 -18 33 -1 2 6 8 -1 12 -16 9 -34 0 -45
-25 -29 -26 16 -51 5 -95 -46 -29 -31 -49 -44 -77 -48 -21 -4 -38 -10 -38 -15
0 -5 -6 -9 -13 -9 -7 0 -18 -9 -25 -21 -11 -18 -11 -23 5 -35 10 -7 25 -11 33
-9 11 4 10 1 -3 -9 -15 -12 -11 -14 35 -20 29 -3 331 -6 671 -6 l617 0 0 185
c0 117 -4 185 -10 185 -5 0 -10 -4 -10 -10 0 -5 -9 -10 -19 -10 -11 0 -21 -5
-23 -12 -6 -17 -61 11 -122 62 -26 22 -52 40 -57 40 -5 0 -9 18 -9 40 0 22 -4
40 -10 40 -5 0 -10 -5 -10 -11 0 -14 -81 -99 -94 -99 -5 0 -17 -7 -27 -16 -10
-9 -22 -13 -28 -10 -14 9 -6 75 12 89 8 7 18 25 21 40 6 25 4 28 -13 22 -22
-7 -50 28 -31 40 6 4 8 11 4 16 -3 6 1 18 9 27 8 9 17 37 20 62 6 55 25 122
26 96 1 -11 4 -16 8 -13 3 4 6 26 5 50 -2 35 3 48 23 65 13 12 31 37 39 57 12
27 21 35 41 35 23 0 25 3 19 28 -4 15 -7 29 -7 32 -3 17 46 100 61 105 20 6
72 59 72 73 0 4 10 12 22 17 32 15 33 33 3 41 -33 8 -71 -11 -92 -47 -18 -30
-52 -44 -68 -28 -7 8 -3 16 13 26 12 9 22 19 22 24 0 12 -46 59 -57 59 -14 0
-33 88 -20 93 8 2 8 5 0 10 -5 4 -13 4 -17 0z"/>
<path d="M1097 1389 c-18 -10 -18 -12 -1 -30 14 -15 31 -19 83 -19 42 1 73 6
85 15 11 8 18 16 15 17 -36 22 -58 28 -106 28 -32 0 -66 -5 -76 -11z"/>
<path d="M2532 1238 c-17 -17 -15 -26 8 -38 18 -10 20 -8 20 20 0 32 -8 38
-28 18z"/>
<path d="M2493 1193 c-7 -2 -13 -13 -13 -22 0 -13 -6 -17 -22 -15 -27 5 -47
-10 -67 -48 -11 -22 -12 -30 -1 -43 16 -19 54 -19 70 0 7 8 19 15 27 15 7 0
16 8 20 18 3 9 12 24 20 33 9 11 12 26 7 43 -6 25 -16 30 -41 19z"/>
<path d="M2518 1080 c-31 -28 -36 -50 -13 -50 8 0 15 5 15 10 0 6 9 10 20 10
15 0 20 7 20 24 0 35 -11 36 -42 6z"/>
<path d="M2269 894 c-6 -37 -4 -164 3 -164 4 0 8 -16 8 -35 0 -23 5 -35 14
-35 18 0 27 13 62 92 18 40 38 71 51 77 45 21 -1 55 -90 67 -26 4 -48 3 -48
-2z"/>
<path d="M2541 723 c-7 -18 -17 -33 -21 -33 -19 0 -43 -101 -31 -132 11 -29
58 -84 66 -76 3 3 4 66 3 139 -3 124 -4 132 -17 102z"/>
<path d="M2300 559 c0 -5 5 -7 10 -4 6 3 10 8 10 11 0 2 -4 4 -10 4 -5 0 -10
-5 -10 -11z"/>
<path d="M2532 408 c6 -18 28 -21 28 -4 0 9 -7 16 -16 16 -9 0 -14 -5 -12 -12z"/>
</g>
</svg>
